<svg viewBox="0 0 128 128" xmlns="http://www.w3.org/2000/svg"><g fill="#fd852b"><path d="m89.84 25.134a2.413 2.413 0 1 1 2.412-2.413 2.415 2.415 0 0 1 -2.412 2.413z"/><path d="m89.84 34.139a2.413 2.413 0 1 1 2.412-2.413 2.415 2.415 0 0 1 -2.412 2.413z"/><path d="m85.337 29.636a2.413 2.413 0 1 1 2.413-2.413 2.415 2.415 0 0 1 -2.413 2.413z"/><path d="m94.342 29.636a2.413 2.413 0 1 1 2.412-2.413 2.415 2.415 0 0 1 -2.412 2.413z"/><path d="m22 103.14a2.413 2.413 0 1 1 2.413-2.413 2.416 2.416 0 0 1 -2.413 2.413z"/><path d="m22 112.145a2.413 2.413 0 1 1 2.413-2.413 2.416 2.416 0 0 1 -2.413 2.413z"/><path d="m17.5 107.642a2.413 2.413 0 1 1 2.413-2.413 2.416 2.416 0 0 1 -2.413 2.413z"/><path d="m26.5 107.642a2.413 2.413 0 1 1 2.413-2.413 2.416 2.416 0 0 1 -2.413 2.413z"/></g><path d="m37.781 15.488h6.542v6.542h-6.542z" fill="#fd748c" transform="matrix(.70711912 -.70709444 .70709444 .70711912 -1.241 34.522)"/><path d="m100.96 105.971h6.542v6.542h-6.542z" fill="#fd748c" transform="matrix(.70710678 -.70710678 .70710678 .70710678 -46.717 105.698)"/><ellipse cx="64" cy="67.091" fill="#fc6928" rx="39.322" ry="16.365"/><path d="m110.684 44.187-8.661 39.269-1.638 7.444c0 3.821-16.292 6.91-36.385 6.91s-36.385-3.09-36.385-6.91l-1.637-7.446-8.662-39.267 30.206 18.538 16.478-26.097 16.478 26.1z" fill="#f9d12f"/><path d="m60.631 66.504h6.737v6.737h-6.737z" fill="#2ec3fc" transform="matrix(.70710678 -.70710678 .70710678 .70710678 -30.662 65.72)"/><path d="m102.023 83.456-1.638 7.444c0 3.821-16.292 6.91-36.385 6.91s-36.385-3.09-36.385-6.91l-1.637-7.446c7.043 2.639 21.431 4.431 38.022 4.431s30.978-1.792 38.023-4.429z" fill="#fd852b"/><path d="m96.234 53.055-10.119 43.334c8.673-1.262 14.27-3.249 14.27-5.487l1.637-7.446 8.661-39.269z" fill="#f8b62b"/><circle cx="110.684" cy="44.553" fill="#fd852b" r="7.816"/><path d="m86.115 96.389q.783-.114 1.531-.236l.13-.021q.7-.114 1.359-.235l.139-.025q.695-.127 1.354-.261l.031-.006c1.369-.28 2.616-.582 3.729-.9l.157-.046q.451-.132.871-.268l.214-.071q.383-.128.737-.258l.213-.079c.237-.09.462-.182.678-.274.052-.022.108-.044.158-.067a11.12 11.12 0 0 0 1.378-.711c.042-.026.078-.053.119-.079.143-.093.279-.186.4-.281.053-.041.1-.082.149-.123.1-.082.19-.164.272-.247.046-.046.088-.092.129-.138a2.6 2.6 0 0 0 .191-.244c.032-.046.066-.093.093-.139a1.77 1.77 0 0 0 .123-.263c.016-.041.037-.082.049-.123a1.387 1.387 0 0 0 .061-.389l1.637-7.446a66.129 66.129 0 0 1 -13.58 2.966z" fill="#fc6928"/><path d="m103.946 48.5a7.8 7.8 0 0 0 14.539-3.644 7.8 7.8 0 0 0 -14.539 3.644z" fill="#fc6928"/><path d="m80.478 62.725-8.662 5.275-7.816-31.262z" fill="#f8b62b"/><circle cx="64" cy="36.738" fill="#fc6928" r="7.816"/><path d="m62 29.19a7.806 7.806 0 0 0 0 15.1 7.806 7.806 0 0 0 0-15.1z" fill="#fd852b"/><path d="m47.522 62.725-4.71 7.148-25.496-25.686z" fill="#f8b62b"/><circle cx="17.316" cy="44.553" fill="#fc6928" r="7.816"/><path d="m13.464 37.758a7.806 7.806 0 0 0 3.454 14.592 7.806 7.806 0 0 0 -3.454-14.592z" fill="#fd852b"/><path d="m64 65.109v4.764h4.764z" fill="#1ba4fc"/><path d="m59.236 69.873h4.764v4.763z" fill="#1ba4fc"/></svg>